name C:\Users\r0593348\3dpredictsim\Results\MidTarsalJoint\Fal_s1_bCst_PF_Natali2010_ls150_MT_k150_d010_MTP_T5_ig21.mot
datacolumns 128
datarows 4
range 1.72801518 1.76257548
endheader
time	pelvis_tilt	pelvis_list	pelvis_rotation	pelvis_tx	pelvis_ty	pelvis_tz	hip_flexion_l	hip_adduction_l	hip_rotation_l	hip_flexion_r	hip_adduction_r	hip_rotation_r	knee_angle_l	knee_angle_r	ankle_angle_l	ankle_angle_r	subtalar_angle_l	subtalar_angle_r	mtj_angle_l	mtj_angle_r	mtp_angle_l	mtp_angle_r	lumbar_extension	lumbar_bending	lumbar_rotation	arm_flex_l	arm_add_l	arm_rot_l	arm_flex_r	arm_add_r	arm_rot_r	elbow_flex_l	elbow_flex_r	pro_sup_l	pro_sup_r	glut_med1_l/activation	glut_med2_l/activation	glut_med3_l/activation	glut_min1_l/activation	glut_min2_l/activation	glut_min3_l/activation	semimem_l/activation	semiten_l/activation	bifemlh_l/activation	bifemsh_l/activation	sar_l/activation	add_long_l/activation	add_brev_l/activation	add_mag1_l/activation	add_mag2_l/activation	add_mag3_l/activation	tfl_l/activation	pect_l/activation	grac_l/activation	glut_max1_l/activation	glut_max2_l/activation	glut_max3_l/activation	iliacus_l/activation	psoas_l/activation	quad_fem_l/activation	gem_l/activation	peri_l/activation	rect_fem_l/activation	vas_med_l/activation	vas_int_l/activation	vas_lat_l/activation	med_gas_l/activation	lat_gas_l/activation	soleus_l/activation	tib_post_l/activation	flex_dig_l/activation	flex_hal_l/activation	tib_ant_l/activation	per_brev_l/activation	per_long_l/activation	per_tert_l/activation	ext_dig_l/activation	ext_hal_l/activation	ercspn_l/activation	intobl_l/activation	extobl_l/activation	glut_med1_r/activation	glut_med2_r/activation	glut_med3_r/activation	glut_min1_r/activation	glut_min2_r/activation	glut_min3_r/activation	semimem_r/activation	semiten_r/activation	bifemlh_r/activation	bifemsh_r/activation	sar_r/activation	add_long_r/activation	add_brev_r/activation	add_mag1_r/activation	add_mag2_r/activation	add_mag3_r/activation	tfl_r/activation	pect_r/activation	grac_r/activation	glut_max1_r/activation	glut_max2_r/activation	glut_max3_r/activation	iliacus_r/activation	psoas_r/activation	quad_fem_r/activation	gem_r/activation	peri_r/activation	rect_fem_r/activation	vas_med_r/activation	vas_int_r/activation	vas_lat_r/activation	med_gas_r/activation	lat_gas_r/activation	soleus_r/activation	tib_post_r/activation	flex_dig_r/activation	flex_hal_r/activation	tib_ant_r/activation	per_brev_r/activation	per_long_r/activation	per_tert_r/activation	ext_dig_r/activation	ext_hal_r/activation	ercspn_r/activation	intobl_r/activation	extobl_r/activation	
          1.72801518	         -2.92991043	          2.33531629	         -5.71171545	          2.16001897	          0.91840468	          0.00173883	         29.25474936	          3.48782366	         -2.28994692	        -16.35839032	         -1.38905575	          6.60817498	        -10.18049697	         -9.11619298	          5.26799105	         -3.60821718	         -4.93976044	          9.21577332	         -0.05575591	          8.48869461	         -0.82863910	          4.82370264	         -1.93113863	         -0.41647051	          2.18929881	         -4.78056171	        -13.45631217	          7.86835723	          5.76202361	        -13.45468228	         18.18955936	         15.35209261	         33.55695987	         86.51662706	         86.51662706	          0.05960002	          0.05960002	          0.05000017	          0.05960010	          0.05960007	          0.05301023	          0.16213400	          0.07693892	          0.20594686	          0.05960012	          0.05000022	          0.14342430	          0.25769725	          0.14806755	          0.17793245	          0.10747413	          0.05000010	          0.05019513	          0.13637009	          0.05000085	          0.05786643	          0.15899101	          0.05000048	          0.05000011	          0.17336689	          0.28014590	          0.13444561	          0.05000014	          0.10194336	          0.10052740	          0.09050305	          0.06529828	          0.05816786	          0.05785765	          0.05000003	          0.05000062	          0.05000026	          0.47616363	          0.24680079	          0.16488916	          0.18727601	          0.44665759	          0.20104838	          0.05606837	          0.12120527	          0.10406353	          0.24453661	          0.10097066	          0.08111436	          0.27154228	          0.19451087	          0.11584787	          0.05000122	          0.05000027	          0.05000016	          0.05270763	          0.12003713	          0.05111920	          0.05000273	          0.05000072	          0.05000129	          0.05000046	          0.30641554	          0.07103868	          0.05000266	          0.05000178	          0.05000107	          0.05000083	          0.44212732	          0.63261133	          0.05000018	          0.05000041	          0.05000565	          0.28052422	          0.05000027	          0.05000028	          0.05000025	          0.29069032	          0.39966001	          0.36523956	          0.26580095	          0.24069552	          0.32193195	          0.05000003	          0.05960001	          0.13291555	          0.05000027	          0.05000006	          0.05000021	          0.05000001	          0.05000007	          0.05000081	
          1.73953528	         -2.92953418	          2.41269326	         -6.00177980	          2.17737412	          0.91738962	          0.00155110	         28.61437577	          3.84448379	         -2.05248660	        -16.34847348	         -1.69891670	          6.42335993	        -10.49182844	        -10.82920256	          4.57166501	         -4.05694450	         -5.30810822	         10.18646803	         -0.04882179	          7.38764084	         -0.83514545	          6.59773492	         -1.73039963	         -0.60094241	          2.25934493	         -5.70484746	        -13.45100429	          7.63853956	          5.48902247	        -13.46481408	         18.48024855	         14.97815236	         34.74751310	         86.51662706	         86.51662706	          0.05000001	          0.05000004	          0.09674522	          0.05000004	          0.05000005	          0.05000007	          0.13601834	          0.06454604	          0.17277400	          0.05000019	          0.05953083	          0.12032278	          0.28466990	          0.30040903	          0.19602978	          0.10800625	          0.05000040	          0.07104337	          0.12807891	          0.05000804	          0.08733419	          0.13338228	          0.05000015	          0.06514738	          0.49009567	          0.23502144	          0.11278984	          0.05960090	          0.12162041	          0.12112783	          0.10466077	          0.06413316	          0.06375506	          0.05000019	          0.05960018	          0.05000360	          0.05960004	          0.45561573	          0.27516479	          0.20552488	          0.15711067	          0.40788502	          0.16866459	          0.05000000	          0.10168213	          0.08730150	          0.20514794	          0.08470685	          0.06804900	          0.22780376	          0.16318011	          0.09718774	          0.05000273	          0.05000065	          0.05000072	          0.05000024	          0.10070249	          0.11671526	          0.05179588	          0.05960051	          0.05959803	          0.05960000	          0.25705984	          0.05960184	          0.05954929	          0.05000404	          0.05000277	          0.05000492	          0.37091177	          0.59853191	          0.05314067	          0.05961264	          0.06310849	          0.24080240	          0.13756748	          0.08853898	          0.13760889	          0.24386739	          0.33528484	          0.32659919	          0.23061017	          0.20192606	          0.27007771	          0.05000006	          0.05000014	          0.14648418	          0.05000015	          0.05000005	          0.05000025	          0.05531318	          0.06779953	          0.05960057	
          1.75105538	         -2.92500858	          2.49318808	         -6.25829450	          2.19506100	          0.91643894	          0.00138726	         27.86071183	          4.10447265	         -1.78808349	        -16.28949949	         -2.00948728	          6.23269237	        -11.04912253	        -12.60898559	          4.00584326	         -4.61473842	         -5.69225472	         11.11178855	         -0.31049015	          6.04219733	         -0.82483648	          8.60292508	         -1.50673387	         -0.79831343	          2.31643246	         -6.66083521	        -13.45344188	          7.46415087	          5.12256678	        -13.47061796	         18.66830621	         14.66116937	         35.93505429	         86.51662706	         86.51662706	          0.23022720	          0.22773218	          0.26888079	          0.33754113	          0.23045735	          0.20503126	          0.11601815	          0.06807046	          0.14494450	          0.08002974	          0.05000068	          0.10094184	          0.23881675	          0.25202074	          0.16445444	          0.11538060	          0.05000040	          0.05960104	          0.10744913	          0.05000045	          0.10082848	          0.11189799	          0.05689216	          0.05465388	          0.41115354	          0.19716546	          0.20102063	          0.05000071	          0.10203046	          0.10161723	          0.08780259	          0.05380296	          0.05348580	          0.05000045	          0.05000016	          0.05000034	          0.05000050	          0.52422802	          0.32219366	          0.17242035	          0.32976445	          0.48256454	          0.14149753	          0.05665294	          0.12460825	          0.07323942	          0.31955077	          0.07106275	          0.05960056	          0.31565881	          0.13689606	          0.08153333	          0.05000124	          0.05000017	          0.05000015	          0.05000022	          0.08448391	          0.09791540	          0.05000030	          0.05000058	          0.05000072	          0.05000054	          0.26671586	          0.05000245	          0.05000062	          0.05001217	          0.05000367	          0.05000114	          0.31116732	          0.57376336	          0.05000059	          0.05001118	          0.05294362	          0.20201530	          0.11540948	          0.07427827	          0.11544399	          0.20458645	          0.28127885	          0.27399223	          0.19346474	          0.16940100	          0.22657511	          0.05000001	          0.09438927	          0.16456108	          0.05000013	          0.05000006	          0.05000014	          0.05000004	          0.05687873	          0.05000043	
          1.76257548	         -2.91868388	          2.56676441	         -6.47613337	          2.21286077	          0.91560732	          0.00119913	         27.06671377	          4.33599003	         -1.52683466	        -16.13283857	         -2.30885778	          6.05660960	        -11.57004116	        -14.51188092	          3.43545711	         -5.30212016	         -6.07491258	         11.99670064	         -0.26914979	          4.49817469	         -0.77044331	         10.76398707	         -1.28458483	         -0.99697118	          2.36421053	         -7.60022291	        -13.45559701	          7.34420140	          4.69796029	        -13.48133440	         18.77944248	         14.38133630	         37.10132051	         86.51662706	         86.51662706	          0.32594496	          0.32216683	          0.34377817	          0.28317184	          0.19333757	          0.19130876	          0.09733073	          0.06971388	          0.12159763	          0.06713912	          0.05000104	          0.08468266	          0.20034938	          0.21142664	          0.13796529	          0.15019194	          0.05000035	          0.05000130	          0.09014198	          0.20330106	          0.17155719	          0.14442470	          0.05000005	          0.05000006	          0.34492704	          0.16540710	          0.16864143	          0.05000007	          0.10307618	          0.11827270	          0.08020562	          0.05000002	          0.05000005	          0.05000000	          0.05000002	          0.05000010	          0.05000009	          0.58330303	          0.30765603	          0.16946107	          0.54849159	          0.52394458	          0.25303644	          0.07728671	          0.10453699	          0.06144239	          0.28070049	          0.05961635	          0.05000053	          0.26481464	          0.11484560	          0.06840041	          0.05000196	          0.05000021	          0.05000019	          0.05000023	          0.07087615	          0.09787561	          0.05000069	          0.05000080	          0.05000149	          0.05000060	          0.22375488	          0.05897015	          0.05000155	          0.05000264	          0.05000152	          0.05000094	          0.26104609	          0.53248493	          0.05000038	          0.05000118	          0.05000026	          0.16947571	          0.10513685	          0.12032402	          0.12032404	          0.17163269	          0.23597187	          0.22985893	          0.16230244	          0.14211484	          0.19007961	          0.05486082	          0.08239361	          0.17135552	          0.05000039	          0.10821302	          0.05000068	          0.06903800	          0.05000001	          0.05000003	
